<?xml version="1.0" encoding="UTF-8" standalone="no"?>
<!-- Created with Inkscape (http://www.inkscape.org/) -->

<svg
   xmlns:dc="http://purl.org/dc/elements/1.1/"
   xmlns:cc="http://creativecommons.org/ns#"
   xmlns:rdf="http://www.w3.org/1999/02/22-rdf-syntax-ns#"
   xmlns:svg="http://www.w3.org/2000/svg"
   xmlns="http://www.w3.org/2000/svg"
   xmlns:xlink="http://www.w3.org/1999/xlink"
   xmlns:sodipodi="http://sodipodi.sourceforge.net/DTD/sodipodi-0.dtd"
   xmlns:inkscape="http://www.inkscape.org/namespaces/inkscape"
   width="32"
   height="32"
   id="svg3344"
   version="1.1"
   inkscape:version="0.92.3 (2405546, 2018-03-11)"
   sodipodi:docname="icon-sm.svg">
  <defs
     id="defs3346">
    <linearGradient
       y2="62.627819"
       x2="2.4495552"
       y1="9.4180365"
       x1="46.701199"
       gradientTransform="translate(-15.210989,-23.3536)"
       gradientUnits="userSpaceOnUse"
       id="linearGradient3294"
       xlink:href="#linearGradient7586"
       inkscape:collect="always" />
    <linearGradient
       id="linearGradient7586">
      <stop
         id="stop7588"
         offset="0"
         style="stop-color:#9bdfee;stop-opacity:1;" />
      <stop
         id="stop7590"
         offset="1"
         style="stop-color:#4c9bad;stop-opacity:1;" />
    </linearGradient>
    <linearGradient
       y2="62.627819"
       x2="2.4495552"
       y1="9.4180365"
       x1="46.701199"
       gradientTransform="translate(0.18182005,-0.954545)"
       gradientUnits="userSpaceOnUse"
       id="linearGradient3342"
       xlink:href="#linearGradient7586"
       inkscape:collect="always" />
    <linearGradient
       inkscape:collect="always"
       xlink:href="#linearGradient7586"
       id="linearGradient3378"
       gradientUnits="userSpaceOnUse"
       gradientTransform="matrix(0.5005029,0,0,0.50121554,0.19787992,31.106836)"
       x1="46.701199"
       y1="9.4180365"
       x2="2.4495552"
       y2="62.627819" />
  </defs>
  <sodipodi:namedview
     id="base"
     pagecolor="#ffffff"
     bordercolor="#666666"
     borderopacity="1.0"
     inkscape:pageopacity="0.0"
     inkscape:pageshadow="2"
     inkscape:zoom="11"
     inkscape:cx="20.095723"
     inkscape:cy="26.345015"
     inkscape:current-layer="g3373"
     showgrid="true"
     inkscape:document-units="px"
     inkscape:grid-bbox="true"
     showguides="true"
     inkscape:guide-bbox="true"
     inkscape:snap-global="true"
     inkscape:window-width="2560"
     inkscape:window-height="1413"
     inkscape:window-x="1920"
     inkscape:window-y="27"
     inkscape:window-maximized="1"
     fit-margin-top="0"
     fit-margin-left="0"
     fit-margin-right="0"
     fit-margin-bottom="0">
    <inkscape:grid
       type="xygrid"
       id="grid3380"
       originx="3.6217117e-09"
       originy="1.7089832e-09" />
  </sodipodi:namedview>
  <metadata
     id="metadata3349">
    <rdf:RDF>
      <cc:Work
         rdf:about="">
        <dc:format>image/svg+xml</dc:format>
        <dc:type
           rdf:resource="http://purl.org/dc/dcmitype/StillImage" />
        <dc:title></dc:title>
      </cc:Work>
    </rdf:RDF>
  </metadata>
  <g
     id="layer1"
     inkscape:label="Layer 1"
     inkscape:groupmode="layer"
     transform="translate(0,-32)">
    <g
       id="g3373"
       transform="translate(-0.21397214,0.83148575)">
      <rect
         style="display:inline;fill:url(#linearGradient3378);fill-opacity:1;stroke:none;stroke-width:0.5"
         id="rect4219"
         width="32"
         height="32"
         x="0.21397214"
         y="31.168514"
         ry="1.5" />
      <g
         id="g3894"
         transform="matrix(1.8001166,0,0,1.8001166,-1.0020009,-49.419547)">
        <path
           style="display:inline;fill:#ffffff;fill-opacity:1;stroke:none;stroke-width:0.34377387"
           d="m 7.2498826,51.149261 c 0.01387,-1.590028 1.323695,-2.86783 2.9255844,-2.854078 1.601887,0.01378 2.889249,1.313889 2.87537,2.903917 -0.01379,1.590028 -1.323673,2.86783 -2.925577,2.854078 -1.5971547,-0.01371 -2.8825975,-1.30649 -2.8754562,-2.891858"
           id="path3172"
           inkscape:connector-curvature="0" />
        <path
           inkscape:connector-curvature="0"
           d="m 12.315101,51.251901 c -3.1e-5,-0.664353 -0.180538,-1.205948 -0.541596,-1.624786 -0.36107,-0.433255 -0.89544,-0.649897 -1.603113,-0.649905 H 8.697265 v 4.5277 h 1.473127 c 0.707673,5e-6 1.242043,-0.209411 1.603113,-0.628247 0.361058,-0.418827 0.541565,-0.960397 0.541596,-1.624762 m -3.617836,4.484361 c -6.4e-6,1.299837 0.1227564,2.130272 0.3682808,2.491335 0.2455156,0.361064 0.80877,0.54157 1.6897632,0.54157 v 0.519939 H 4.7978099 v -0.519939 c 0.8665438,0 1.4225759,-0.180506 1.6681001,-0.54157 0.2599596,-0.375517 0.3899428,-1.205953 0.3899453,-2.491335 V 51.576853 C 6.8558528,50.277051 6.7330914,49.446615 6.4875742,49.085545 6.24205,48.724488 5.6787956,48.543956 4.7978099,48.543949 V 48.02401 h 5.3942461 c 1.314258,9e-6 2.33243,0.296076 3.054563,0.888204 0.72212,0.59217 1.083184,1.372039 1.083191,2.339687 -7e-6,0.938751 -0.368298,1.711418 -1.104847,2.318005 -0.722134,0.592139 -1.733101,0.888208 -3.032907,0.888204 H 8.697265 v 1.278152"
           style="font-style:normal;font-variant:normal;font-weight:normal;font-stretch:normal;font-size:75.62056732px;line-height:125%;font-family:MrsEavesSmallCaps;-inkscape-font-specification:MrsEavesSmallCaps;letter-spacing:0px;word-spacing:0px;display:inline;fill:#000000;fill-opacity:1;stroke:none;stroke-width:0.34377387"
           id="path3207" />
      </g>
    </g>
  </g>
</svg>
